# xmcd
#
# Track frame offsets:
#	150
#	23435
#	43570
#	65560
#	88307
#	104235
#	121162
#	140100
#	157605
#
# Disc length: 2373 seconds
#
# Revision: 0
# Processed by: cddbd v1.5.2PL0 Copyright (c) Steve Scherf et al.
# Submitted via: audiograbber 1.83.01
#
DISCID=75094309
DTITLE=Alice Cooper - The Studio Albums 1969-1983 [CD 07) - Muscle Of Love
DYEAR=1973
DGENRE=Rock
TTITLE0=Big Apple Dreamin' (Hippo)
TTITLE1=Never Been Sold Before
TTITLE2=Hard Hearted Alice
TTITLE3=Crazy Little Child
TTITLE4=Working Up A Sweat
TTITLE5=Muscle Of Love
TTITLE6=Man With The Golden Gun
TTITLE7=Teenage Lament '74
TTITLE8=Woman Machine
EXTD=
EXTT0=
EXTT1=
EXTT2=
EXTT3=
EXTT4=
EXTT5=
EXTT6=
EXTT7=
EXTT8=
PLAYORDER=
